# xmcd CD database file
#
# Track frame offsets:
#	182
#	15082
#	28822
#	47107
#	63707
#	80292
#	92925
#	106030
#	119745
#	133945
#	151957
#	167242
#
# Disc length: 2488 seconds
#
# Revision: 0
# Processed by: cddbd v1.4PL0 Copyright (c) Steve Scherf et al.
# Submitted via: CDex 1.51
#
DISCID=9c09b60c
DTITLE=Jonny Hillr - Wölfe und Schafe
DYEAR=1999
DGENRE=Country
TTITLE0=Steh auf und leb dein Leben
TTITLE1=Ich wär ohne dich verloren
TTITLE2=Wölfe und Schafe
TTITLE3=Tierra libre
TTITLE4=Wieviel sind 20 Jahre wert
TTITLE5=Mein Traum
TTITLE6=Verlangen
TTITLE7=Wir beide werden niemals alt
TTITLE8=Komm zu mir
TTITLE9=Und dann seh ich diese Augen
TTITLE10=Nur ein Augenblick Mut
TTITLE11=50.000 Kilometer
EXTD=YEAR: 1999
EXTT0=
EXTT1=
EXTT2=
EXTT3=
EXTT4=
EXTT5=
EXTT6=
EXTT7=
EXTT8=
EXTT9=
EXTT10=
EXTT11=
PLAYORDER=
